<?xml version="1.0" ?><svg id="Icons" viewBox="0 0 128 128" xmlns="http://www.w3.org/2000/svg" xmlns:xlink="http://www.w3.org/1999/xlink"><defs><style>.cls-1{fill:url(#New_Gradient_Swatch_1);}.cls-2{fill:#0c3b79;}</style><linearGradient gradientUnits="userSpaceOnUse" id="New_Gradient_Swatch_1" x1="17" x2="112" y1="64" y2="64"><stop offset="0" stop-color="#67a3ff"/><stop offset="1" stop-color="#418cff"/></linearGradient></defs><path class="cls-1" d="M106.73,7H22.27A5.35,5.35,0,0,0,17,12.43V115.57A5.35,5.35,0,0,0,22.27,121h84.46a5.35,5.35,0,0,0,5.27-5.43V12.43A5.35,5.35,0,0,0,106.73,7Z"/><path class="cls-2" d="M86,50H42.09a5.26,5.26,0,0,1-5.49-5,5.26,5.26,0,0,1,5.49-5H86a5.26,5.26,0,0,1,5.49,5A5.26,5.26,0,0,1,86,50Z"/><path class="cls-2" d="M86,75H42.09a5,5,0,1,1,0-10H86a5,5,0,1,1,0,10Z"/></svg>