<svg width="128" height="128" viewBox="0 0 128 128" fill="none" xmlns="http://www.w3.org/2000/svg">
<path d="M43 107C38.5817 107 35 103.418 35 99L35 35C35 30.5817 38.5817 27 43 27L91 27C95.4183 27 99 30.5817 99 35L99 99C99 103.418 95.4183 107 91 107L43 107Z" fill="#F79EFF"/>
<path d="M43 40C43 39.4477 43.4477 39 44 39H84C84.5523 39 85 39.4477 85 40C85 40.5523 84.5523 41 84 41H44C43.4477 41 43 40.5523 43 40Z" fill="black"/>
<path d="M44 51C43.4477 51 43 51.4477 43 52C43 52.5523 43.4477 53 44 53H84C84.5523 53 85 52.5523 85 52C85 51.4477 84.5523 51 84 51H44Z" fill="black"/>
<path d="M43 64C43 63.4477 43.4477 63 44 63H84C84.5523 63 85 63.4477 85 64C85 64.5523 84.5523 65 84 65H44C43.4477 65 43 64.5523 43 64Z" fill="black"/>
<path d="M43 76C43 75.4477 43.4477 75 44 75H68C68.5523 75 69 75.4477 69 76C69 76.5523 68.5523 77 68 77H44C43.4477 77 43 76.5523 43 76Z" fill="black"/>
<path fill-rule="evenodd" clip-rule="evenodd" d="M30 32L30 96C30 101.523 34.4772 106 40 106H88C93.5229 106 98 101.523 98 96V32C98 26.4771 93.5228 22 88 22L40 22C34.4772 22 30 26.4772 30 32ZM40 104C35.5817 104 32 100.418 32 96L32 32C32 27.5817 35.5817 24 40 24L88 24C92.4183 24 96 27.5817 96 32V96C96 100.418 92.4183 104 88 104H40Z" fill="black"/>
</svg>
